HIERARCHY
ROOT Hips
{
	OFFSET 38.128201 -3.357306 98.879997
	CHANNELS 6 Xposition Yposition Zposition Xrotation Yrotation Zrotation
	JOINT spine
	{
		OFFSET 0.000000 -0.477352 8.301041
		CHANNELS 3 Xrotation Yrotation Zrotation
		JOINT spine1
		{
			OFFSET 0.000000 -0.000002 10.456497
			CHANNELS 3 Xrotation Yrotation Zrotation
			JOINT spine2
			{
				OFFSET 0.000000 -0.000002 10.019203
				CHANNELS 3 Xrotation Yrotation Zrotation
				JOINT Neck
				{
					OFFSET 0.000000 -1.226414 25.723495
					CHANNELS 3 Xrotation Yrotation Zrotation
					JOINT Head
					{
						OFFSET 0.000000 -0.000001 7.771744
						CHANNELS 3 Xrotation Yrotation Zrotation
						End Site
						{
							OFFSET 0.000000 6.203937 18.811996
						}
					}
				}
				JOINT RightShoulder
				{
					OFFSET -4.218800 0.587437 10.820007
					CHANNELS 3 Xrotation Yrotation Zrotation
					JOINT RightArm
					{
						OFFSET 0.000000 -0.000002 14.191406
						CHANNELS 3 Xrotation Yrotation Zrotation
						JOINT RightArmRoll
						{
							OFFSET 0.000000 -0.000001 7.164078
							CHANNELS 3 Xrotation Yrotation Zrotation
							JOINT RightForeArm
							{
								OFFSET 0.000000 -0.000003 20.866501
								CHANNELS 3 Xrotation Yrotation Zrotation
								JOINT RightForeArmRoll
								{
									OFFSET 0.000000 -0.000001 8.039215
									CHANNELS 3 Xrotation Yrotation Zrotation
									JOINT RightHand
									{
										OFFSET 0.000000 -0.000003 16.132996
										CHANNELS 3 Xrotation Yrotation Zrotation
										End Site
										{
											OFFSET 0.000000 0.000000 0.100006
										}
									}
								}
							}
						}
					}
				}
				JOINT LeftShoulder
				{
					OFFSET 4.218800 0.587437 10.820007
					CHANNELS 3 Xrotation Yrotation Zrotation
					JOINT LeftArm
					{
						OFFSET 0.000000 -0.000002 14.191406
						CHANNELS 3 Xrotation Yrotation Zrotation
						JOINT LeftArmRoll
						{
							OFFSET 0.000000 -0.000001 7.164078
							CHANNELS 3 Xrotation Yrotation Zrotation
							JOINT LeftForeArm
							{
								OFFSET 0.000000 -0.000003 20.866501
								CHANNELS 3 Xrotation Yrotation Zrotation
								JOINT LeftForeArmRoll
								{
									OFFSET 0.000000 -0.000001 8.039215
									CHANNELS 3 Xrotation Yrotation Zrotation
									JOINT LeftHand
									{
										OFFSET 0.000000 -0.000003 16.132996
										CHANNELS 3 Xrotation Yrotation Zrotation
										End Site
										{
											OFFSET 0.000000 0.000000 0.100006
										}
									}
								}
							}
						}
					}
				}
			}
		}
	}
	JOINT RightUpLeg
	{
		OFFSET -7.357731 1.131810 -1.349213
		CHANNELS 3 Xrotation Yrotation Zrotation
		JOINT RightUpLegRoll
		{
			OFFSET 0.000000 -0.000003 18.916801
			CHANNELS 3 Xrotation Yrotation Zrotation
			JOINT RightLeg
			{
				OFFSET 0.000000 0.000004 -23.425598
				CHANNELS 3 Xrotation Yrotation Zrotation
				JOINT RightLegRoll
				{
					OFFSET 0.000000 -0.000004 23.502304
					CHANNELS 3 Xrotation Yrotation Zrotation
					JOINT RightFoot
					{
						OFFSET 0.000000 -0.000003 19.561707
						CHANNELS 3 Xrotation Yrotation Zrotation
						JOINT RightToeBase
						{
							OFFSET 0.000000 -0.000003 16.352600
							CHANNELS 3 Xrotation Yrotation Zrotation
							End Site
							{
								OFFSET 0.006931 0.912836 7.919434
							}
						}
					}
				}
			}
		}
	}
	JOINT LeftUpLeg
	{
		OFFSET 7.357731 1.131810 -1.349213
		CHANNELS 3 Xrotation Yrotation Zrotation
		JOINT LeftUpLegRoll
		{
			OFFSET 0.000000 -0.000003 18.916901
			CHANNELS 3 Xrotation Yrotation Zrotation
			JOINT LeftLeg
			{
				OFFSET 0.000000 -0.000004 23.425499
				CHANNELS 3 Xrotation Yrotation Zrotation
				JOINT LeftLegRoll
				{
					OFFSET 0.000000 -0.000004 23.719498
					CHANNELS 3 Xrotation Yrotation Zrotation
					JOINT LeftFoot
					{
						OFFSET 0.000000 -0.000003 19.344406
						CHANNELS 3 Xrotation Yrotation Zrotation
						JOINT LeftToeBase
						{
							OFFSET 0.000000 -0.000003 16.352600
							CHANNELS 3 Xrotation Yrotation Zrotation
							End Site
							{
								OFFSET -0.031063 0.912836 7.919434
							}
						}
					}
				}
			}
		}
	}
}
MOTION
Frames: 13
Frame Time: 0.041667
39.434502 -2.770444 98.780006 -1.745254 -0.785986 1.338872 -1.518309 -0.046343 0.092005 0.938522 -0.100641 0.159029 2.583593 -0.098490 0.160191 24.558025 -0.554314 -1.301922 -10.607484 1.710127 -1.339968 -2.122030 -75.949853 -4.261616 -83.809809 -110.494607 -49.430513 -0.000001 0.000002 -0.000022 0.013464 -2.140881 0.281023 -0.000003 0.000005 -3.173734 -5.000150 -7.999839 0.000047 8.304996 67.494809 -8.223667 -43.225187 103.967937 23.831201 0.000002 -0.000009 0.000002 3.980500 9.336133 0.274546 -0.000002 -0.000031 3.000001 -5.000230 7.998861 -0.000148 -0.551620 -174.925229 2.166594 -179.999991 0.000005 -1.061994 174.513232 -5.003094 -0.669964 -0.000002 -0.000004 0.073722 68.518743 6.885501 2.191901 25.456860 -7.355620 -0.000004 -0.535613 176.484151 1.545128 -0.000004 -0.000005 -1.126350 -8.912570 3.360711 0.947819 -0.000003 -0.000002 -0.112648 68.742589 -6.917969 -2.073775 25.456953 7.355613 -0.000001 
39.436897 -2.771594 98.784210 -1.746705 -0.788464 1.339046 -1.518810 -0.045784 0.091986 0.939522 -0.098711 0.160942 2.584593 -0.096557 0.162087 24.591838 -0.556543 -1.309726 -10.628556 1.721322 -1.347777 -2.120454 -75.949368 -4.259872 -83.858365 -110.546502 -49.405077 -0.000001 0.000004 -0.000020 0.013019 -2.042039 0.298753 -0.000002 0.000006 -3.173753 -5.000154 -7.999839 0.000044 8.304681 67.493313 -8.223558 -43.535076 103.995115 24.143744 0.000001 -0.000008 0.000002 3.990765 9.321084 0.275003 -0.000004 -0.000031 3.000000 -5.000231 7.998860 -0.000149 -0.558238 -174.911241 2.190893 -179.999991 0.000005 -1.061994 174.500009 -5.028861 -0.670607 -0.000002 -0.000005 0.073947 68.510950 6.885497 2.191987 25.456863 -7.355619 -0.000003 -0.541873 176.487170 1.548903 -0.000005 -0.000004 -1.126350 -8.918919 3.358095 0.948012 -0.000004 -0.000002 -0.112633 68.744809 -6.917963 -2.073835 25.456953 7.355613 -0.000000 
39.434299 -2.764163 98.792198 -1.748177 -0.791085 1.338846 -1.519319 -0.045263 0.091957 0.940566 -0.096818 0.162916 2.585633 -0.094661 0.164046 24.626541 -0.557659 -1.317887 -10.650424 1.731813 -1.355865 -2.118676 -75.947380 -4.257760 -83.901190 -110.598822 -49.375216 0.000001 0.000004 -0.000020 0.012591 -1.944230 0.316119 0.000001 0.000007 -3.173759 -5.000151 -7.999839 0.000046 8.304227 67.492630 -8.223180 -43.843056 104.023884 24.453185 0.000002 -0.000008 0.000002 4.000057 9.305014 0.275605 -0.000003 -0.000031 3.000001 -5.000233 7.998860 -0.000147 -0.565527 -174.896242 2.217949 -179.999991 0.000005 -1.061994 174.485351 -5.057606 -0.672660 -0.000001 -0.000005 0.074210 68.502324 6.885502 2.192025 25.456860 -7.355619 -0.000004 -0.548349 176.490162 1.552921 -0.000005 -0.000005 -1.126350 -8.925704 3.355364 0.948215 -0.000004 -0.000002 -0.112610 68.747343 -6.917980 -2.073880 25.456955 7.355613 -0.000000 
39.436600 -2.756743 98.786201 -1.749648 -0.793807 1.338393 -1.519850 -0.044768 0.091921 0.941641 -0.094950 0.164934 2.586713 -0.092792 0.166046 24.661749 -0.557998 -1.326317 -10.672992 1.741807 -1.364136 -2.116754 -75.944293 -4.255397 -83.940197 -110.651612 -49.342591 -0.000001 0.000005 -0.000019 0.012174 -1.847129 0.333234 -0.000002 0.000006 -3.173760 -5.000154 -7.999838 0.000047 8.303659 67.492357 -8.222586 -44.156750 104.051956 24.767596 0.000002 -0.000009 0.000001 4.008653 9.288249 0.276316 -0.000004 -0.000031 3.000001 -5.000231 7.998859 -0.000148 -0.573283 -174.879248 2.246929 -179.999991 0.000005 -1.061994 174.469642 -5.088326 -0.674029 -0.000002 -0.000004 0.074500 68.493055 6.885500 2.192103 25.456861 -7.355621 -0.000004 -0.554973 176.493167 1.557108 -0.000004 -0.000005 -1.126350 -8.932790 3.352534 0.948421 -0.000004 -0.000002 -0.112581 68.750082 -6.917971 -2.073907 25.456955 7.355613 -0.000001 
39.436001 -2.752103 98.788498 -1.751120 -0.796587 1.337787 -1.520380 -0.044289 0.091880 0.942734 -0.093097 0.166975 2.587803 -0.090937 0.168070 24.697346 -0.557899 -1.334873 -10.695856 1.751522 -1.372513 -2.114737 -75.940509 -4.252865 -83.977142 -110.704478 -49.308392 0.000001 0.000003 -0.000020 0.011768 -1.750460 0.350208 -0.000001 0.000005 -3.173759 -5.000151 -7.999838 0.000049 8.303072 67.492494 -8.221925 -44.467277 104.081346 25.078283 0.000000 -0.000008 0.000001 4.016856 9.271078 0.277087 -0.000003 -0.000031 3.000001 -5.000230 7.998859 -0.000148 -0.581310 -174.862268 2.277002 -179.999991 0.000005 -1.061994 174.453318 -5.120045 -0.675552 -0.000002 -0.000004 0.074805 68.483479 6.885506 2.192199 25.456863 -7.355620 -0.000003 -0.561686 176.496159 1.561389 -0.000005 -0.000004 -1.126350 -8.940059 3.349662 0.948632 -0.000004 -0.000002 -0.112549 68.752923 -6.917969 -2.074029 25.456957 7.355613 -0.000000 
39.432499 -2.740626 98.792702 -1.752599 -0.799381 1.337141 -1.520913 -0.043814 0.091839 0.943831 -0.091248 0.169022 2.588903 -0.089085 0.170101 24.733051 -0.557698 -1.343473 -10.718824 1.761175 -1.380909 -2.112711 -75.936623 -4.250314 -84.013588 -110.757268 -49.273791 0.000000 0.000004 -0.000022 0.011363 -1.653879 0.367152 -0.000003 0.000004 -3.173751 -5.000151 -7.999839 0.000046 8.302436 67.492630 -8.221197 -44.776654 104.111194 25.387646 0.000002 -0.000008 0.000002 4.024965 9.253805 0.277875 -0.000005 -0.000031 3.000000 -5.000230 7.998860 -0.000149 -0.589400 -174.844264 2.307343 -179.999991 0.000005 -1.061994 174.436871 -5.151747 -0.677105 -0.000002 -0.000004 0.075113 68.473794 6.885506 2.192305 25.456863 -7.355621 -0.000003 -0.568420 176.499164 1.565701 -0.000005 -0.000004 -1.126350 -8.947374 3.346778 0.948843 -0.000004 -0.000002 -0.112516 68.755874 -6.917975 -2.073946 25.456950 7.355613 0.000000 
39.438999 -2.736874 98.776009 -1.754080 -0.802147 1.336576 -1.521439 -0.043331 0.091800 0.944920 -0.089391 0.171057 2.589992 -0.087226 0.172120 24.768552 -0.557732 -1.352009 -10.741693 1.770976 -1.389243 -2.110737 -75.933139 -4.247849 -84.051673 -110.809895 -49.240555 0.000001 0.000003 -0.000022 0.010953 -1.557101 0.384159 -0.000002 0.000005 -3.173748 -5.000151 -7.999839 0.000046 8.301839 67.492658 -8.220539 -45.084381 104.141349 25.695715 0.000003 -0.000008 0.000001 4.033270 9.236744 0.278643 -0.000002 -0.000031 2.999999 -5.000228 7.998860 -0.000148 -0.597354 -174.827284 2.337131 -179.999991 0.000005 -1.061994 174.420683 -5.183464 -0.679662 -0.000002 -0.000004 0.075414 68.464320 6.885517 2.192397 25.456863 -7.355621 -0.000003 -0.575109 176.502183 1.569959 -0.000004 -0.000004 -1.126350 -8.954600 3.343916 0.949052 -0.000004 -0.000002 -0.112484 68.758722 -6.917973 -2.074067 25.456955 7.355614 -0.000000 
39.437599 -2.730995 98.777718 -1.755555 -0.804840 1.336192 -1.521960 -0.042829 0.091766 0.945986 -0.087515 0.173061 2.591052 -0.085349 0.174107 24.803660 -0.558338 -1.360354 -10.764061 1.781140 -1.397435 -2.108842 -75.930257 -4.245537 -84.092558 -110.862009 -49.209259 0.000001 0.000004 -0.000020 0.010536 -1.459809 0.401355 -0.000002 0.000005 -3.173759 -5.000150 -7.999839 0.000047 8.301310 67.492282 -8.220014 -45.389616 104.171648 26.001864 0.000001 -0.000008 0.000003 4.042068 9.220174 0.279345 -0.000005 -0.000031 3.000000 -5.000231 7.998860 -0.000148 -0.604980 -174.811288 2.365546 -179.999991 0.000005 -1.061994 174.405247 -5.214178 -0.681060 -0.000002 -0.000004 0.075697 68.455257 6.885481 2.192556 25.456861 -7.355621 -0.000004 -0.581692 176.505175 1.574090 -0.000005 -0.000005 -1.126350 -8.961597 3.341116 0.949255 -0.000004 -0.000002 -0.112457 68.761365 -6.917994 -2.074105 25.456955 7.355614 -0.000000 
39.431702 -2.723694 98.794609 -1.757014 -0.807418 1.336103 -1.522470 -0.042297 0.091740 0.947017 -0.085610 0.175017 2.592092 -0.083442 0.176046 24.838063 -0.559851 -1.368407 -10.785738 1.791887 -1.405381 -2.107138 -75.928768 -4.243550 -84.138027 -110.913441 -49.181412 -0.000001 0.000004 -0.000022 0.010101 -1.361689 0.418842 -0.000002 0.000005 -3.173771 -5.000151 -7.999838 0.000047 8.300910 67.491292 -8.219724 -45.692227 104.202015 26.306363 0.000001 -0.000008 0.000003 4.051642 9.204426 0.279936 -0.000003 -0.000031 3.000001 -5.000231 7.998860 -0.000147 -0.612065 -174.796302 2.391745 -179.999991 0.000005 -1.061994 174.390999 -5.241923 -0.682089 -0.000001 -0.000005 0.075949 68.446835 6.885491 2.192682 25.456863 -7.355620 -0.000004 -0.588102 176.507197 1.578040 -0.000005 -0.000004 -1.126350 -8.968254 3.338417 0.949450 -0.000004 -0.000002 -0.112436 68.763797 -6.918001 -2.074155 25.456960 7.355613 -0.000000 
39.435101 -2.721837 98.793503 -1.758453 -0.809839 1.336428 -1.522960 -0.041722 0.091725 0.947998 -0.083665 0.176906 2.593072 -0.081494 0.177919 24.871476 -0.562609 -1.376062 -10.806417 1.803414 -1.413022 -2.105644 -75.928884 -4.241952 -84.190046 -110.963916 -49.158538 0.000000 0.000003 -0.000023 0.009644 -1.262430 0.436718 -0.000002 0.000006 -3.173791 -5.000153 -7.999838 0.000047 8.300679 67.489591 -8.219752 -45.989539 104.232621 26.606935 0.000002 -0.000009 0.000002 4.062295 9.189781 0.280380 -0.000002 -0.000031 3.000001 -5.000230 7.998860 -0.000147 -0.618416 -174.782301 2.414909 -179.999991 0.000005 -1.061994 174.378390 -5.266691 -0.683672 -0.000002 -0.000004 0.076159 68.439363 6.885497 2.192648 25.456863 -7.355621 -0.000003 -0.594276 176.510188 1.581706 -0.000005 -0.000004 -1.126350 -8.974421 3.335861 0.949635 -0.000004 -0.000002 -0.112425 68.765996 -6.917960 -2.074210 25.456955 7.355613 -0.000000 
39.435799 -2.715385 98.795311 -1.759884 -0.812057 1.337280 -1.523443 -0.041094 0.091724 0.948918 -0.081668 0.178711 2.593992 -0.079494 0.179704 24.903802 -0.566943 -1.383194 -10.826005 1.815957 -1.420246 -2.104441 -75.931186 -4.240876 -84.250179 -111.013482 -49.141613 -0.000001 0.000003 -0.000021 0.009157 -1.161739 0.455106 -0.000001 0.000005 -3.173822 -5.000148 -7.999839 0.000048 8.300610 67.486770 -8.220133 -46.282701 104.263036 26.905037 0.000002 -0.000008 0.000004 4.074320 9.176550 0.280633 -0.000003 -0.000031 3.000001 -5.000233 7.998860 -0.000146 -0.623834 -174.771318 2.434227 -179.999991 0.000005 -1.061994 174.367831 -5.287493 -0.684698 -0.000002 -0.000005 0.076316 68.433147 6.885480 2.192634 25.456860 -7.355619 -0.000003 -0.600152 176.512196 1.585043 -0.000004 -0.000004 -1.126350 -8.979979 3.333468 0.949806 -0.000004 -0.000002 -0.112424 68.767690 -6.917956 -2.074302 25.456959 7.355615 -0.000000 
39.431099 -2.705884 98.792999 -1.761297 -0.814031 1.338759 -1.523890 -0.040400 0.091741 0.949761 -0.079609 0.180412 2.594832 -0.077431 0.181388 24.934733 -0.573191 -1.389698 -10.843996 1.829707 -1.426982 -2.103605 -75.936199 -4.240438 -84.320065 -111.061683 -49.132102 0.000001 0.000004 -0.000020 0.008633 -1.059290 0.474102 -0.000002 0.000004 -3.173872 -5.000151 -7.999837 0.000049 8.300795 67.482727 -8.220995 -46.570330 104.293314 27.199736 0.000002 -0.000007 0.000003 4.088014 9.165030 0.280649 -0.000003 -0.000032 3.000000 -5.000233 7.998861 -0.000147 -0.628112 -174.763313 2.448870 -179.999991 0.000005 -1.061994 174.359812 -5.303353 -0.684996 -0.000001 -0.000005 0.076408 68.428312 6.885494 2.192637 25.456863 -7.355622 -0.000004 -0.605659 176.514204 1.587956 -0.000004 -0.000004 -1.126350 -8.984787 3.331301 0.949964 -0.000003 -0.000002 -0.112437 68.768865 -6.917991 -2.074336 25.456953 7.355613 -0.000000 
39.428600 -2.699435 98.775200 -1.762690 -0.815718 1.340987 -1.524307 -0.039630 0.091777 0.950516 -0.077476 0.181991 2.595582 -0.075294 0.182950 24.963974 -0.581687 -1.395457 -10.860397 1.844878 -1.433150 -2.103163 -75.944211 -4.240710 -84.401378 -111.108367 -49.131156 -0.000002 0.000004 -0.000021 0.008073 -0.954777 0.493826 -0.000002 0.000004 -3.173932 -5.000151 -7.999839 0.000048 8.301296 67.477262 -8.222448 -46.851423 104.323121 27.490318 0.000002 -0.000008 0.000003 4.103678 9.155526 0.280388 -0.000003 -0.000031 3.000001 -5.000232 7.998860 -0.000148 -0.631048 -174.758313 2.458006 -179.999991 0.000005 -1.061993 174.354758 -5.313260 -0.685445 -0.000002 -0.000004 0.076425 68.425163 6.885517 2.192536 25.456861 -7.355622 -0.000004 -0.610735 176.515202 1.590395 -0.000005 -0.000004 -1.126350 -8.988724 3.329368 0.950101 -0.000004 -0.000002 -0.112467 68.769493 -6.917997 -2.074398 25.456953 7.355614 -0.000001 
